<svg width="21" height="21" viewBox="0 0 21 21" fill="none" xmlns="http://www.w3.org/2000/svg">
<path d="M8.11364 10.5H8.12159M12.8864 10.5H12.8943M8.90909 13.6818C9.30682 13.9204 9.86364 14.0795 10.5 14.0795C11.1364 14.0795 11.6932 13.9204 12.0909 13.6818" stroke="#FF6B6B" stroke-width="1.59091" stroke-linecap="round" stroke-linejoin="round"/>
<path d="M16.0682 5.9659C16.7888 6.86928 17.2801 7.93368 17.5 9.06818C17.769 9.19845 17.9958 9.40185 18.1545 9.65508C18.3133 9.90831 18.3975 10.2011 18.3975 10.5C18.3975 10.7989 18.3133 11.0917 18.1545 11.3449C17.9958 11.5981 17.769 11.8015 17.5 11.9318C17.1566 13.5334 16.2743 14.9689 15.0004 15.9986C13.7265 17.0283 12.138 17.59 10.5 17.59C8.86197 17.59 7.27347 17.0283 5.99957 15.9986C4.72567 14.9689 3.84341 13.5334 3.5 11.9318C3.23103 11.8015 3.00418 11.5981 2.84546 11.3449C2.68674 11.0917 2.60255 10.7989 2.60255 10.5C2.60255 10.2011 2.68674 9.90831 2.84546 9.65508C3.00418 9.40185 3.23103 9.19845 3.5 9.06818C3.82953 7.45381 4.70583 6.00251 5.98105 4.95915C7.25627 3.91579 8.85235 3.34423 10.5 3.3409C12.0909 3.3409 13.2841 4.2159 13.2841 5.32954C13.2841 6.44318 12.5682 7.31818 11.6932 7.31818C11.0568 7.31818 10.5 7 10.5 6.52272" stroke="#FF6B6B" stroke-width="1.59091" stroke-linecap="round" stroke-linejoin="round"/>
</svg>
