<?xml version="1.0" encoding="utf-8" ?>
<svg xmlns="http://www.w3.org/2000/svg" xmlns:xlink="http://www.w3.org/1999/xlink" width="419" height="419">
	<path transform="scale(0.40918 0.40918)" d="M525.25 991.583C507.282 991.581 489.315 991.578 471.347 991.569C448.801 991.558 425.764 992.751 403.828 986.515C372.124 977.502 342.525 955.253 326.587 926.085C318.965 912.136 313.58 896.961 311.842 881.129C310.847 872.062 310.963 863.082 310.861 853.98C310.72 841.433 310.571 828.888 310.588 816.34C310.638 780.88 310.769 745.421 310.849 709.964C310.883 694.983 310.524 680.005 310.523 665.025C310.522 636.795 310.842 608.561 310.828 580.336C310.822 568.273 310.783 556.208 310.695 544.145C310.638 536.272 310.344 528.33 310.75 520.468C311.237 511.065 312.658 501.572 315.306 492.529C326.515 454.253 353.72 426.469 388.014 407.604C382.362 400.071 379.648 394.368 377.328 385.25C376.457 381.826 376.392 378.672 376.486 375.136C376.827 362.251 383.452 348.842 392.75 340.076C399.153 334.039 408.79 327.955 417.892 328.221L418.34 328.239C419.117 295.53 418.443 262.664 418.434 229.939C418.431 221.993 418.417 214.048 418.428 206.102C418.433 202.269 417.976 197.796 418.809 194.08C420.237 187.705 423.995 180.883 428.22 175.978C437.44 165.276 449.163 161.116 462.935 159.984C464.322 154.762 466.467 149.929 468.035 144.792C470.306 137.348 471.64 127.99 470.638 120.218L470.507 119.25C469.508 110.893 464.04 104.568 462.238 96.6693C459.423 84.3336 461.756 70.5825 468.51 59.8919C475.316 49.1189 486.784 39.9589 498.684 35.5438C502.388 34.1694 506.387 33.4225 510.236 32.5772C514.666 32.2874 519.923 32.0555 524.248 33.038C530.672 34.4973 536.739 35.5914 542.56 38.9198C555.159 46.1239 565.265 56.3525 570.005 70.25C570.962 73.0576 571.684 75.6103 571.974 78.5992C572.22 81.1466 572.887 83.7391 572.922 86.2899C572.988 91.0547 571.991 95.7419 570.575 100.25C568.679 106.287 565.344 111.816 563.316 117.884C561.696 122.732 561.49 127.56 562.504 132.598C563.061 135.367 563.362 138.405 564.344 141.053C566.085 145.747 567.85 150.345 569.689 155.014C570.24 156.411 570.6 158.249 571.438 159.5C572.231 160.683 583.986 162.236 586.5 163.027C589.737 164.047 593.422 165.84 596.191 167.827C603.48 173.058 612.434 183.774 613.846 192.968C613.932 193.526 614.013 194.012 614.176 194.556C616.17 201.168 615.523 208.951 615.522 215.8C615.521 225.26 615.516 234.721 615.511 244.181C615.494 271.939 615.456 299.695 615.556 327.453C620.501 328.159 624.414 329.175 628.962 331.218C637.806 335.192 646.619 342.92 651.486 351.339C653.623 355.037 654.882 358.821 656.402 362.741C659.077 369.642 659 381.757 656.822 388.887C654.829 395.415 652.125 401.943 647.975 407.414L647.655 407.829C654.101 412.064 660.746 415.966 667 420.506C685.919 434.241 702.363 452.801 712.425 473.951C714.661 478.65 716.095 483.441 717.997 488.25L719.638 493.25C720.727 497.916 722.232 502.56 723.11 507.3C723.881 511.465 724.011 515.66 724.634 519.828C725.368 524.734 725.007 530.163 725.041 535.137C725.106 544.424 725.17 553.711 725.232 562.998C725.466 597.815 725.414 632.627 725.387 667.444C725.352 713.13 725.382 758.814 725.409 804.5C725.418 819.103 725.37 833.707 725.325 848.31C725.289 860.123 725.448 871.866 724.272 883.614L721.914 896.19C721.042 900.878 719.026 905.786 717.296 910.228C710.684 927.201 701.277 942.082 688.379 954.956C666.436 976.857 636.368 989.471 605.568 991.449C595.673 992.084 585.451 991.591 575.518 991.593C558.762 991.598 542.006 991.591 525.25 991.583ZM513.277 63.1448C505.339 64.3916 499.076 67.9421 494.251 74.4543C492.15 77.2892 490.805 80.3283 489.617 83.6359L498.425 108.484C499.806 112.624 499.977 117.683 500.152 122.015L523.504 122.073L533.948 122.16C534.378 112.978 535.974 104.779 539.834 96.3599C541.127 93.542 544.044 89.4448 544.421 86.494C544.964 82.2481 540.268 74.955 537.528 71.9224C532.453 66.3068 524.717 63.2851 517.25 62.9988L513.277 63.1448ZM495.737 151.75L494.741 160.492L539.75 160.451L540.25 159.604L537.719 152.011C527.633 151.382 517.415 151.536 507.308 151.526C503.838 151.522 499.028 150.945 495.737 151.75ZM568.866 191.225C557.942 191.847 546.916 191.619 535.976 191.592C519.723 191.553 503.471 191.493 487.218 191.478C481.073 191.473 474.928 191.473 468.783 191.49C465.283 191.499 461.507 191.211 458.062 191.821C455.095 192.346 452.427 193.639 450.364 195.873C448.568 197.82 447.721 199.632 447.463 202.25C446.91 207.867 447.539 213.899 447.541 219.565C447.544 232.617 447.501 245.669 447.486 258.721C447.466 275.33 447.512 291.94 447.516 308.55C447.517 312.436 447.566 316.329 447.428 320.213C447.364 322.033 446.991 324.064 447.095 325.846C447.125 326.372 447.184 326.502 447.314 326.948L464.375 326.515L586.436 326.517C585.041 296.033 586.026 265.062 586.044 234.524C586.048 227.176 586.052 219.829 586.047 212.481C586.045 208.997 586.435 205.036 585.801 201.63C585.21 198.449 583.703 195.858 581.24 193.75C577.877 190.87 573.143 190.932 568.866 191.225ZM449.639 356.227C442.735 356.395 436.108 356.763 429.25 357.474C424.368 357.98 419.792 357.91 415.247 360.211C410.799 362.462 407.242 367.506 406.08 372.358C405.173 376.146 405.451 379.965 407.05 383.5C410.635 391.421 415.947 395.694 423.969 399.005C425.772 399.749 427.529 400.218 429.482 400.371C435.011 400.804 440.852 400.471 446.415 400.48C457.127 400.497 467.84 400.5 478.552 400.524C514.473 400.605 550.389 400.499 586.31 400.593C593.333 400.583 602.031 401.492 608.838 400.045C613.466 399.062 618.504 395.887 621.842 392.568C626.342 388.092 628.555 382.45 628.523 376.15C628.495 370.827 626.514 365.548 622.61 361.781C619.194 358.485 614.685 356.818 610.051 356.19C604.107 355.384 597.378 355.938 591.345 355.978C579.168 356.059 566.992 356.22 554.814 356.256C519.799 356.361 484.637 355.342 449.639 356.227ZM410.837 430.02C382.039 443.177 357.787 462.399 346.456 492.906C343.628 500.521 341.889 508.646 341.064 516.712L625.578 516.985L694.649 516.49C691.219 489.404 675.841 464.774 654.427 448.21C644.864 440.812 634.937 434.989 623.722 430.462C621.866 429.713 619.62 430.04 617.659 430.109C613.94 430.24 610.223 430.409 606.502 430.45C596.312 430.564 586.112 430.491 575.921 430.483C536.662 430.454 497.402 430.535 458.142 430.457C446.681 430.434 435.216 430.447 423.755 430.331C419.65 430.289 414.839 429.552 410.837 430.02ZM339.61 546.75C339.452 619.844 339.62 692.941 339.616 766.035C339.614 789.32 339.62 812.606 339.575 835.891C339.55 848.694 338.818 861.961 339.907 874.712C340.575 882.529 343.249 892.469 346.596 899.518C348.447 903.418 349.851 907.443 351.981 911.25C363.094 931.109 381.439 946.372 402.704 954.313C410.238 957.127 418.605 959.337 426.637 960.044C438.137 961.057 450.112 960.391 461.679 960.392C483.465 960.395 505.251 960.369 527.036 960.375C545.876 960.38 564.717 960.384 583.557 960.385C593.723 960.386 604.476 961.114 614.559 959.943C623.839 958.865 633.37 955.554 641.82 951.654C653.002 946.493 661.4 939.558 669.902 930.817C683.3 915.582 691.998 898.974 695.639 879C696.454 874.532 696.331 869.549 696.38 865.016C696.46 857.541 696.431 850.064 696.427 842.589C696.414 819.779 696.429 796.969 696.414 774.159C696.384 726.038 696.339 677.92 696.393 629.799C696.423 602.13 696.96 574.356 696.328 546.698C671.874 545.635 646.973 546.945 622.462 546.98C570.029 547.053 517.588 547.082 465.158 547.019C433.081 546.98 401.064 546.711 368.986 546.981C362.952 547.032 356.903 546.996 350.871 546.824C347.212 546.72 343.23 546.233 339.61 546.75Z"/>
	<path transform="scale(0.40918 0.40918)" d="M610.494 821.958C566.418 821.759 522.328 821.956 478.25 821.986C467.711 821.993 457.17 821.993 446.632 822.096C436.191 822.198 424.737 823.298 414.557 820.603C399.029 816.492 384.97 806.048 376.873 792.148C373.712 786.722 371.346 779.992 370.613 773.75C369.804 766.857 370.09 759.572 370.072 752.629C370.037 738.836 370.289 725.043 370.323 711.25C370.362 695.51 370.227 679.768 370.156 664.028C370.111 653.769 369.875 643.298 370.544 633.063C370.747 629.953 371.582 626.616 372.403 623.609C376.108 610.032 386.333 597.173 398.529 590.247C407.061 585.402 415.389 582.807 425.24 582.211C433.713 581.199 443.232 581.908 451.807 581.904C469.49 581.895 487.173 581.927 504.856 581.95C528.386 581.981 551.917 582.015 575.448 582.073C587.955 582.103 601.03 581.422 613.482 582.572C620.151 583.187 627.752 585.765 633.662 588.905C646.204 595.567 657.844 609.053 661.774 622.897L662.834 626.725L663.042 627.75C664.412 633.443 664.056 639.391 664.198 645.22C664.477 656.734 664.475 668.193 664.367 679.708C664.19 698.419 664.231 717.15 664.33 735.862C664.371 743.683 664.881 751.445 665.067 759.259C665.153 762.898 665.57 767.197 664.742 770.725C663.097 777.728 661.524 784.127 658.131 790.522C656.252 794.063 654.055 797.568 651.494 800.667C641.137 813.195 626.577 820.421 610.494 821.958ZM435.201 611.737C424.374 612.179 414.468 613.571 406.696 621.954C403.003 625.936 400.663 631.399 399.837 636.756C398.854 643.132 399.472 650.415 399.482 656.872C399.501 669.828 399.505 682.784 399.508 695.74C399.512 712.21 399.516 728.679 399.504 745.149C399.498 752.946 398.9 761.265 399.536 769C399.846 772.768 402.058 776.788 404.275 779.75C408.475 785.362 414.898 791.013 422.07 792.241C426.776 793.047 432.658 792.404 437.463 792.405C449.212 792.408 460.961 792.391 472.709 792.378C515.223 792.331 557.737 792.372 600.25 792.369C610.665 792.38 618.9 791.78 626.678 783.909C631.261 779.271 634.17 773.457 635.324 767.078C636.37 761.296 635.922 754.987 635.938 749.121C635.964 739.187 635.93 729.253 635.898 719.318C635.819 694.246 636.541 669.054 635.947 644L635.648 640.5C634.792 632.348 632.004 624.79 625.588 619.383C621.384 615.841 616.107 613.002 610.625 612.128C604.237 611.109 597.221 611.636 590.748 611.634C578.951 611.631 567.155 611.645 555.359 611.648C515.319 611.659 475.234 611.225 435.201 611.737Z"/>
</svg>
