<svg width="21" height="21" viewBox="0 0 21 21" fill="none" xmlns="http://www.w3.org/2000/svg">
<path d="M9.92728 3.18183L9.52955 3.57955C8.46364 2.98296 7.19091 2.86365 6.05341 3.23751L5.98978 3.18183C5.21819 2.40228 3.95341 2.40228 3.18182 3.18183C2.41023 3.96137 2.40228 5.21819 3.18182 5.98978L3.23751 6.05342C2.86364 7.19092 2.98296 8.46365 3.57955 9.52955L3.18182 9.92728C3.07023 10.0375 2.98163 10.1688 2.92116 10.3136C2.86069 10.4583 2.82955 10.6136 2.82955 10.7705C2.82955 10.9273 2.86069 11.0826 2.92116 11.2274C2.98163 11.3721 3.07023 11.5034 3.18182 11.6136L4.30341 12.7432C4.77273 13.2046 5.52046 13.2046 5.98978 12.7432L6.26819 12.4568L11.9 18.0807C12.3614 18.55 13.1171 18.55 13.5864 18.0807L18.0807 13.5864C18.55 13.1171 18.55 12.3614 18.0807 11.8921L12.4568 6.26819L12.7432 5.98978C13.2046 5.52046 13.2046 4.77274 12.7432 4.30342L11.6136 3.17387C11.3889 2.95148 11.085 2.8274 10.7688 2.82889C10.4526 2.83039 10.1499 2.95732 9.92728 3.18183ZM4.33523 6.56251C4.39887 6.29205 4.51023 6.02955 4.66137 5.78296L4.02501 5.1466C3.9396 5.06596 3.87657 4.96456 3.84205 4.85228C3.73864 4.58183 3.79432 4.24774 4.02501 4.02501C4.25569 3.80228 4.58182 3.73865 4.85228 3.84205C4.96364 3.87387 5.0591 3.93751 5.1466 4.02501L5.78296 4.66137C6.02955 4.51024 6.29205 4.39887 6.56251 4.33524C7.2466 4.13637 7.97841 4.1841 8.63069 4.47046L4.47046 8.63069C4.1841 7.97842 4.13637 7.2466 4.33523 6.56251ZM17.2375 12.7432L12.7432 17.2375L7.11932 11.6136L11.6136 7.11933L17.2375 12.7432ZM11.9 5.1466L5.1466 11.9L4.02501 10.7705L10.7705 4.02501L11.9 5.1466ZM12.7432 10.2057L10.2057 12.7432L9.36251 11.9L11.9 9.36251L12.7432 10.2057ZM14.4296 11.9L11.9 14.4296L11.0489 13.5864L13.5864 11.0489L14.4296 11.9Z" fill="#FF6B6B"/>
</svg>
