<?xml version="1.0" encoding="utf-8" ?>
<svg xmlns="http://www.w3.org/2000/svg" xmlns:xlink="http://www.w3.org/1999/xlink" width="419" height="419">
	<path transform="scale(0.40918 0.40918)" d="M657.615 773.15L622.031 780.978C606.116 783.602 589.64 783.558 573.559 783.568C558.493 783.577 543.426 783.579 528.36 783.579C508.45 783.577 488.539 783.584 468.629 783.574C456.026 783.567 443.227 784.045 430.648 783.394C426.564 783.183 422.561 782.525 418.5 782.133C391.552 779.529 366.39 773.644 341.524 762.721C327.699 756.648 314.387 749.746 302.124 740.867C279.58 724.544 259.175 703.964 244.226 680.379C228.891 656.187 219.269 628.721 214.783 600.502C212.792 587.978 212.042 575.411 211.715 562.75C210.806 527.667 215.145 493.481 224.65 459.678C228.203 447.043 232.695 434.687 237.231 422.38C244.981 401.352 253.343 380.854 262.319 360.332C274.271 333.004 285.989 305.67 303.512 281.305C317.123 262.378 333.581 243.476 355.943 234.963C361.76 232.749 367.755 231.664 373.865 230.659C375.172 230.219 377.643 230.42 379.056 230.376C387.933 230.099 396.746 230.579 405.352 232.945C414.697 235.513 423.62 239.702 433.068 241.858C459.006 247.777 486.324 248.449 512.813 248.47C524.435 248.48 536.176 248.631 547.78 247.908C561.923 247.027 577.284 245.587 591.052 242.169C598.419 240.34 605.468 237.237 612.678 234.913C632.885 228.401 652.782 228.609 672.394 236.938C678.719 239.624 684.215 243.719 689.583 247.927C717.179 269.556 734.305 301.631 748.438 333C751.006 338.699 753.976 344.434 756.251 350.248C760.814 361.906 766.844 373.075 771.972 384.5C774.33 389.755 776.179 395.289 778.305 400.639C784.04 415.065 789.227 429.495 793.801 444.337C795.683 450.443 798.243 456.778 799.618 463L801.639 469.943L803.746 478.056C804.075 479.998 804.836 481.77 805.208 483.697C806.617 491.001 808.152 498.388 809.119 505.775C811.174 521.468 811.862 536.977 811.93 552.792C811.999 568.767 811.602 584.576 809.237 600.412C806.147 621.11 799.202 642.978 789.963 661.75C763.176 716.176 714.266 753.654 657.615 773.15ZM377.96 260.672L373.453 261.505C352.765 265.57 337.222 285.011 326.053 301.5C319.089 311.781 313.374 322.606 308.25 333.882C307.331 335.904 305.928 338.082 305.516 340.258C319.554 343.338 333.849 345.583 348.03 347.827C352.771 348.578 357.509 349.494 362.239 350.21C366.6 350.871 371.487 351.48 375.569 353.166C378.57 354.405 380.747 356.389 382.47 359.141C383.183 360.28 383.601 361.253 384.073 362.5C385.281 365.695 385.972 368.192 384.75 371.604C383.102 376.208 379.256 379.575 374.823 381.401C372.807 382.231 370.38 382.403 368.212 382.251C359.209 381.623 349.636 379.171 340.75 377.556C324.422 374.588 308.069 371.567 291.721 368.72C288.677 376.066 285.034 383.144 282.039 390.5C276.25 404.718 270.834 419.121 265.467 433.5C263.407 439.02 261.443 444.499 259.614 450.106C258.746 452.766 257.639 455.429 257.287 458.221C268.191 459.003 279.561 461.997 289.885 465.544C326.058 477.973 356.952 500.45 381.979 529.221C406.385 557.278 424.526 590.203 438.608 624.452C442.328 633.5 445.689 643.106 448.382 652.5L448.876 653.924L450.851 660.465L456.69 680.557C457.6 683.035 457.944 685.885 458.511 688.469L565.172 688.5C568.61 670.253 574.866 651.538 581.536 634.218C603.858 576.256 638.659 524.299 690.439 488.809L704.445 479.879C715.614 473.349 727.586 467.692 739.944 463.786C748.742 461.006 757.814 459.258 766.779 457.13L733.311 371.464C708.577 374.679 684.528 380.685 660 384.863C636.809 388.814 613.494 392.818 590.114 395.466C544.426 400.641 498.089 400.534 452.366 396.042C446.945 395.509 441.596 394.718 436.191 394.13C430.567 393.518 422.344 393.887 417.662 390.25C414.264 387.609 411.978 383.412 411.586 379.125C411.257 375.543 412.609 370.992 414.948 368.25C417.599 365.143 420.965 363.18 425.113 362.993C428.79 362.826 432.287 363.68 435.925 363.925C450.669 364.915 465.291 366.916 480 367.955C489.8 368.646 499.747 368.414 509.566 368.413C521.273 368.411 533.009 368.549 544.713 368.312C559.519 368.011 574.316 366.412 589.017 364.718C633.182 359.628 676.409 349.954 720.188 342.502C713.972 330.455 708.204 318.26 700.986 306.75C697.037 300.452 692.476 294.439 687.882 288.603C679.257 277.644 668.756 267.229 655.167 262.834C633.65 255.876 614.965 267.297 594.536 272.436C583.648 275.176 572.172 276.341 560.997 277.306C537.781 279.31 514.635 279.368 491.373 278.371C477.773 277.788 464.299 277.113 450.785 275.397C441.506 274.219 431.993 272.7 422.939 270.372C408.401 266.635 393.322 258.48 377.96 260.672ZM249.242 487.25C247.883 490.255 247.832 493.067 247.184 496.227C245.338 505.231 244.804 514.499 242.996 523.46C250.384 523.644 258.086 523.663 265.425 524.582C290.312 527.697 314.096 538.838 331.404 557.073C339.154 565.238 345.151 573.919 348.824 584.594L350.762 591.885C351.73 595.317 351.971 599.049 352.203 602.591C352.933 613.743 351.691 624.423 349.25 635.298C348.252 639.745 346.839 644.275 346.062 648.75C344.644 656.911 344.514 664.765 345.28 672.981C345.578 676.172 345.604 679.52 346.823 682.518C347.51 684.208 347.782 686.046 348.438 687.75C349.697 691.022 351.367 694.116 352.998 697.21C362.793 715.795 381.736 732.089 399.749 742.449C404.866 745.392 410.452 748.493 416.139 750.19C424.682 752.741 432.764 752.426 441.572 752.417C449.839 752.41 458.105 752.396 466.371 752.385C485.013 752.361 503.655 752.373 522.297 752.373C540.625 752.373 558.953 752.4 577.281 752.4C587.305 752.399 597.453 752.75 607.455 752.195C616.907 751.67 628.034 749.908 637.186 747.361C647.487 744.495 657.476 741.386 667.31 737.104C704.626 720.858 738.247 692.695 758.429 657.036C779.856 619.178 782.513 576.114 781.453 533.611C780.797 528.391 780.648 523.148 780.111 517.924C779.051 507.614 777.424 497.132 774.977 487.061C757.393 489.793 740.568 495.058 724.714 503.22C713.511 508.987 702.836 516.768 693.093 524.713C677.335 537.563 662.705 552.129 650.69 568.577C627.04 600.951 611.745 636.984 599.682 674.971C597.194 682.806 595.169 690.839 593.045 698.781C592.038 702.548 591.311 706.946 589.621 710.461C587.404 715.073 583.5 718.466 578.364 719.309C573.113 720.172 566.772 719.54 561.393 719.534C549.501 719.521 537.608 719.545 525.716 719.548C508.487 719.553 491.258 719.563 474.029 719.554C465.08 719.55 455.591 720.168 446.709 719.242C443.477 718.905 440.283 717.705 437.674 715.75C435.381 714.031 433.489 711.666 432.534 708.948C431.271 705.353 430.727 701.293 429.966 697.553C429.005 692.831 427.85 688.102 426.62 683.443C422.415 667.511 416.733 651.521 410.75 636.166C386.356 573.562 340.328 510.912 272.909 492.209C265.193 490.069 257.242 487.972 249.242 487.25ZM241.584 554.25C241.362 572.948 243.382 592.169 247.627 610.367C248.566 614.391 249.355 618.813 250.817 622.666L255.094 635.5C263.631 655.866 275.583 675.851 290.96 691.87C298.818 700.056 307.347 706.8 316.501 713.467C322.009 717.477 328.344 722.927 334.729 725.373L335.399 725.565L335.055 725.118L331.561 719.742C315.797 696.519 311.539 668.893 316.768 641.545C319.463 627.445 324.561 613.527 321.662 599L321.481 598.028C319.004 585.197 306.776 574.267 296.364 567.382C284.755 559.705 272.269 555.982 258.563 554.297C254.919 553.85 251.186 553.876 247.518 553.83C245.663 553.807 243.323 553.598 241.584 554.25Z"/>
	<path transform="scale(0.40918 0.40918)" d="M526.622 334.249C521.322 334.825 515.4 334.104 510.064 333.889C493.379 333.217 476.887 331.695 460.263 330.186C451.404 329.382 442.598 328.433 433.75 327.521C427.751 326.903 421.269 326.496 415.388 325.24C413.011 324.733 410.853 323.906 408.91 322.421C406.215 320.361 404.455 316.93 404.022 313.592C403.406 308.837 404.099 304.836 407.112 300.972C409.879 297.421 413.59 295.821 417.921 295.179C438.681 297.152 459.319 299.879 480.089 301.791C489.403 302.648 498.948 303.284 508.288 303.787C514.894 304.143 523.686 303 529.86 305.215L530.5 305.457C531.361 305.752 532.18 305.975 533 306.391C536.663 308.25 539.226 311.083 540.373 315.075L540.618 315.995C541.405 318.628 541.376 321.997 540.312 324.565L540.01 325.25C538.474 328.82 536.065 331.746 532.434 333.345C530.675 334.119 528.518 334.13 526.622 334.249Z"/>
	<path transform="scale(0.40918 0.40918)" d="M304.71 805.884C303.416 805.99 302.137 806.05 300.842 805.911C295.061 805.293 288.851 801.497 283.746 798.766C255.477 783.646 229.33 762.356 209.203 737.392C179.212 700.194 161.967 656.553 154.777 609.501C152.679 595.773 152.087 581.648 151.763 567.784C151.22 544.552 152.16 521.216 154.825 498.132C157.522 474.768 162.932 451.615 169.435 429.062C180.561 390.473 195.902 351.583 218.576 318.214C222.323 312.701 226.052 304.668 231.276 300.682L231.87 300.25C234.009 298.676 236.17 297.906 238.65 297.057C241.926 296.69 244.507 296.929 247.495 298.389C250.164 299.693 252.678 302.427 253.673 305.227L254.024 306.25C255.348 309.421 255.782 312.577 254.808 315.958C253.521 320.422 250.105 325.195 247.547 329.032C243.977 334.385 240.415 339.767 237.046 345.25C232.204 353.132 228.092 361.454 223.976 369.73C214.518 388.748 207.175 408.633 201 428.93C197.009 442.051 193.216 455.158 190.455 468.605C185.017 495.093 182.403 522.245 181.737 549.25C181.546 556.989 181.578 564.643 181.795 572.382C181.913 576.597 181.837 581.016 182.522 585.177C183.32 590.02 183.278 594.905 183.915 599.751C185.341 610.59 187.177 621.929 190.004 632.5C201.449 675.293 222.998 713.863 256.478 743.451C267.681 753.352 280.517 762.009 293.5 769.4C297.858 771.881 302.322 774.176 306.7 776.623C310.387 778.684 314.554 780.49 316.297 784.619L316.553 785.25L316.809 785.791C318.171 788.854 317.834 794.191 316.49 797.191C314.336 801.998 309.37 804.218 304.71 805.884Z"/>
	<path transform="scale(0.40918 0.40918)" d="M724.824 806.015C720.863 806.097 717.578 805.894 713.99 803.922C711.027 802.293 708.909 799.674 707.943 796.417L707.758 795.75C706.26 790.475 706.924 784.467 710.982 780.484C715.432 776.116 723.45 773.485 728.993 770.609C733.405 768.319 737.776 765.648 741.94 762.929C780.137 737.996 808.391 701.978 825.152 659.721C834.027 637.347 838.526 613.328 840.775 589.477C846.181 532.126 838.577 472.66 819.799 418.25C816.033 407.338 812.141 396.394 807.373 385.872C800.237 370.121 792.495 354.684 783.588 339.849C780.713 335.059 777.636 330.351 774.466 325.75C772.497 322.892 769.609 319.649 768.386 316.406C767.224 313.325 768.153 308.126 769.637 305.25C772.099 300.477 776.25 298.455 781.141 297.033C784.666 296.879 788.621 297.363 791.459 299.646L791.977 300.078C796.443 303.725 800.201 309.821 803.364 314.601C817.128 335.397 827.52 357.95 837.979 380.5C841.336 387.737 843.555 395.69 846.335 403.174C850.05 413.174 853.264 423.193 856.009 433.5C857.31 438.382 858.942 443.35 859.757 448.339L868.61 494.969C869.277 497.659 869.217 500.666 869.527 503.43C870.505 512.159 870.968 520.668 871.486 529.415C873.531 563.931 872.582 599.167 864.893 632.973C861.176 649.32 855.512 665.409 848.78 680.736C845.49 688.225 842.229 695.727 838.153 702.831C833.411 711.096 828.458 719.524 822.873 727.25C803.643 753.853 777.578 776.892 749.467 793.627C741.954 798.099 733.28 803.735 724.824 806.015Z"/>
</svg>
