<?xml version="1.0" encoding="utf-8" ?>
<svg xmlns="http://www.w3.org/2000/svg" xmlns:xlink="http://www.w3.org/1999/xlink" width="419" height="419">
	<path transform="scale(0.40918 0.40918)" d="M518.75 923.541C483.698 923.642 448.643 923.608 413.591 923.614C404.256 923.615 394.922 923.613 385.588 923.604C381.76 923.6 375.489 924.403 372.044 922.804L371.5 922.533L370.125 921.891C366.555 920.054 363.624 916.378 362.539 912.509C361.518 908.871 361.798 904.124 361.684 900.337C361.462 892.943 360.99 884.975 362.208 877.653C363.289 871.157 366.044 864.28 369.329 858.578C376.832 845.552 390.789 833.897 405.558 830.212C407.629 829.695 409.636 828.905 411.75 828.574C418.069 827.586 425.351 828.207 431.766 828.24C440.312 828.285 448.858 828.326 457.404 828.355L457.304 787.679C454.8 786.491 451.735 786.035 449.071 785.209C444.358 783.747 439.678 782.085 435.141 780.142C404.879 767.181 376.342 749.459 352.25 726.888C323.69 700.132 301.496 666.544 287.207 630.161C277.384 605.152 270.942 578.178 268.676 551.386C267.238 534.385 267.44 517.283 267.428 500.239C267.424 495.133 267.426 490.027 267.454 484.922C267.475 481.065 267.159 477.029 268.837 473.438C270.593 469.682 273.3 466.545 277.293 465.143L278 464.906C281.352 463.72 284.794 464.009 288.309 464.006C293.022 464.003 297.736 464.023 302.449 464.021C316.754 464.015 331.167 463.671 345.455 464.297C346.072 413.336 345.229 362.362 345.8 311.401C346.085 285.978 344.028 260.984 349.344 235.864C354.263 212.618 363.838 190.773 377.202 171.164C381.41 164.989 385.905 158.637 391.023 153.19C396.776 147.066 403.376 141.581 410.001 136.431C437.389 115.138 470.723 101.371 505.604 100.227C532.454 99.2815 557.543 104.5 581.878 115.748C619.987 133.363 651.941 168.362 666.278 207.806C669.826 217.568 672.704 227.124 675.02 237.25C675.647 239.991 675.621 242.802 676.192 245.509C677.738 252.827 677.999 260.869 678.184 268.343C678.473 280.06 678.244 291.796 678.328 303.517C678.571 337.529 678.558 371.582 678.445 405.596C678.399 419.427 678.312 433.25 678.448 447.081C678.504 452.756 678.288 458.455 678.608 464.119C693.177 463.985 707.751 463.984 722.32 463.946C729.037 463.928 736.621 463.203 743.213 464.092C745.18 464.358 747.365 465.402 749.039 466.415C752.358 468.424 754.875 471.692 755.654 475.545C756.561 480.036 756.037 485.47 756.065 490.068C756.112 497.783 756.312 505.485 756.241 513.205C756.145 523.683 756.314 534.254 755.578 544.709C752.018 595.258 735.886 643.847 707.152 685.747C679.03 726.753 640.366 759.689 594.089 778.393C584.856 782.125 575.877 785.849 566.042 787.685C565.977 797.062 566.301 806.443 566.391 815.819C566.43 819.901 565.836 824.116 566.303 828.155C570.642 828.594 575.152 828.359 579.517 828.345C587.148 828.321 594.779 828.292 602.41 828.296C606.494 828.297 611.212 827.966 615.224 828.684C621.637 829.831 627.945 832.701 633.455 836.068C646.505 844.041 655.469 856.899 660.035 871.25C662.179 877.986 662.665 885.505 663.053 892.559C663.55 901.601 664.998 911.438 658.123 918.623C656.085 920.752 653.495 922.815 650.535 923.37C646.931 924.046 642.506 923.567 638.816 923.558C630.829 923.54 622.842 923.549 614.855 923.55C582.82 923.551 550.785 923.547 518.75 923.541ZM500.781 129.712C473.098 131.784 447.696 144.446 425.881 160.993C439.108 161.019 452.279 161.133 465.5 161.454C470.308 161.571 475.894 160.97 480.575 162.058C482.977 162.616 485.182 164.109 486.872 165.87C489.976 169.103 491.697 172.998 491.535 177.5C491.376 181.885 489.265 185.094 486.124 187.995C484.246 189.728 481.906 190.907 479.38 191.319C472.388 192.46 463.727 191.587 456.6 191.583C439.464 191.575 422.325 191.5 405.189 191.6C404.246 191.606 397.329 191.616 397.295 191.653C396.443 192.568 395.535 196.02 394.899 197.315C391.31 204.61 387.414 211.717 383.904 219.061C390.307 219.779 396.902 219.488 403.337 219.457C412.803 219.41 422.27 219.415 431.736 219.367C436.777 219.342 442.308 218.602 447.25 219.625C450.218 220.239 453.518 221.797 455.517 224.139C458.816 228.006 460.006 232.783 459.417 237.75C459.046 240.887 456.666 243.683 454.173 245.441C452.115 246.894 450.008 248.092 447.482 248.441C440.961 249.342 433.419 248.615 426.81 248.614C412.878 248.612 398.964 248.659 385.034 248.892C382.163 248.94 377.721 247.983 375.064 248.879L374.482 278.084C390.211 278.056 405.941 278.027 421.67 278.029C430.145 278.031 439.157 277.508 447.556 278.464C449.274 278.66 450.528 279.172 452 280.091L452.758 280.555C455.564 282.341 456.795 284.26 458.042 287.25C459.725 291.29 459.722 294.459 458.182 298.562C456.778 302.302 454.422 304.775 450.75 306.362C446.741 308.095 442.215 307.589 437.938 307.589C431.989 307.59 426.041 307.57 420.092 307.561C404.812 307.538 389.531 307.506 374.25 307.478L374.058 335.504C390.373 335.656 406.686 335.954 423.002 336.053C428.696 336.088 434.394 336.091 440.088 336.2C442.745 336.251 445.872 336.077 448.465 336.572C451.128 337.081 453.675 338.819 455.525 340.741C458.609 343.945 459.768 347.558 459.562 351.906C459.386 355.619 457.199 359.295 454.421 361.697C452.724 363.163 450.703 364.356 448.49 364.835C444.659 365.666 439.967 365.397 436.048 365.401C429.004 365.407 421.962 365.325 414.921 365.176C401.168 364.884 387.413 364.814 373.66 364.511L373.853 397.625C374.07 431.08 374.119 464.544 374.036 498C373.99 516.243 373.645 534.312 375.018 552.5C375.21 555.031 374.989 557.345 375.583 559.864L647.86 559.543C648.627 552.216 649.814 544.855 650.207 537.51C651.35 516.137 650.353 494.336 650.386 472.913C650.447 433.732 650.328 394.565 650.083 355.387C649.954 334.771 650.318 314.151 650.216 293.533C650.14 278.028 650.334 262.316 647.562 246.996C643.189 222.837 633.325 199.575 617.874 180.399C596.437 153.793 562.497 133.672 528.292 129.944L500.781 129.712ZM678.692 493.25L678.579 493.923C677.821 498.914 678.874 504.108 678.991 509.147C679.226 519.172 679.309 529.572 678.71 539.577C678.284 546.682 678.025 554.064 676.714 561.063C670.363 594.967 653.239 627.571 629.176 652.19C623.888 657.6 618.424 663.12 612.369 667.679C577.383 694.023 534.104 707.144 490.402 700.964C445.356 694.593 406.023 670.537 378.848 634.227C362.46 612.329 349.858 583.719 346.517 556.5C345.424 547.598 345.22 538.251 345.071 529.279C344.877 517.534 346.191 505.369 344.995 493.682L296.804 493.522C295.12 496.695 296.052 503.495 296.032 507.05C295.984 515.445 295.695 523.998 296.105 532.381C296.252 535.369 296.855 538.334 297.118 541.317C297.967 550.936 298.906 560.407 300.75 569.895C302.025 576.455 302.845 583.107 304.762 589.543L310.111 608.195C310.333 609.163 310.659 609.841 311.032 610.75L312.226 614.239L314.214 619.385C316.624 626.602 320.581 633.733 324.023 640.53C331.317 656.422 340.995 670.501 352.128 683.931C377.345 714.354 411.447 740.277 448.75 754.019C453.629 755.817 458.622 757.567 463.607 759.046C467.56 760.219 472.242 760.707 475.833 762.74C479.083 764.58 482.242 768.225 483.699 771.659L484.009 772.5L484.254 772.994C486.973 778.625 485.515 788.062 485.471 794.345C485.394 805.547 484.887 817.198 485.575 828.363L537.906 828.309C537.89 817.127 537.84 805.943 537.742 794.762C537.688 788.572 536.802 781.607 538.13 775.553C538.83 772.357 540.632 768.841 542.9 766.465C544.403 764.89 546.233 763.727 548.227 762.874C552.779 760.928 558.029 760.083 562.765 758.552C574.185 754.861 585.366 750.623 596.14 745.315C658.512 714.584 703.868 653.128 719.978 586C725.396 563.424 727.318 538.93 727.447 515.75L727.427 493.608L678.692 493.25ZM386.117 587.75C385.584 589.332 386.519 590.575 387.25 592.035C405.04 627.571 434.643 654.301 472.676 666.387C505.34 676.766 542.569 673.387 572.915 657.544C583.473 652.032 594.098 644.978 602.688 636.681C617.257 623.62 630.261 605.961 638.235 588.051C626.45 586.704 613.88 587.732 601.994 587.714C577.824 587.679 553.658 587.596 529.487 587.645C496.851 587.712 464.214 587.571 431.578 587.62C416.525 587.642 401.134 586.956 386.117 587.75ZM417.344 857.671C409.168 858.769 402.06 862.861 396.967 869.366C391.54 876.296 390.252 885.604 390.349 894.188L608.625 894.31L634.527 894.343C634.5 883.666 631.436 872.571 623.624 864.884C620.162 861.478 615.547 858.73 610.727 857.891C604.671 856.837 597.562 857.572 591.354 857.576C577.998 857.583 564.643 857.593 551.287 857.593C521.921 857.593 492.554 857.6 463.187 857.605C448.285 857.607 433.283 857.252 418.392 857.63L417.344 857.671Z"/>
</svg>
