<svg width="38" height="38" viewBox="0 0 38 38" fill="none" xmlns="http://www.w3.org/2000/svg">
<path fill-rule="evenodd" clip-rule="evenodd" d="M9.89584 12.6667C9.89584 10.2521 10.855 7.93641 12.5624 6.22905C14.2697 4.52169 16.5854 3.5625 19 3.5625C21.4146 3.5625 23.7303 4.52169 25.4376 6.22905C27.145 7.93641 28.1042 10.2521 28.1042 12.6667V17.4167C28.1042 19.8312 27.145 22.1469 25.4376 23.8543C23.7303 25.5616 21.4146 26.5208 19 26.5208C16.5854 26.5208 14.2697 25.5616 12.5624 23.8543C10.855 22.1469 9.89584 19.8312 9.89584 17.4167V12.6667ZM19 5.9375C17.2153 5.9375 15.5037 6.64646 14.2418 7.90843C12.9798 9.17039 12.2708 10.882 12.2708 12.6667V17.4167C12.2693 19.0992 12.8981 20.7213 14.0334 21.9632C15.1687 23.2051 16.728 23.9766 18.404 24.1256C20.0799 24.2746 21.7509 23.7904 23.0875 22.7683C24.4241 21.7463 25.3293 20.2606 25.6247 18.6042H20.5833C20.2684 18.6042 19.9663 18.4791 19.7436 18.2564C19.5209 18.0337 19.3958 17.7316 19.3958 17.4167C19.3958 17.1017 19.5209 16.7997 19.7436 16.577C19.9663 16.3543 20.2684 16.2292 20.5833 16.2292H25.7292V13.8542H20.5833C20.2684 13.8542 19.9663 13.7291 19.7436 13.5064C19.5209 13.2837 19.3958 12.9816 19.3958 12.6667C19.3958 12.3517 19.5209 12.0497 19.7436 11.827C19.9663 11.6043 20.2684 11.4792 20.5833 11.4792H25.6247C25.3457 9.92516 24.5294 8.51867 23.3184 7.50565C22.1074 6.49262 20.5788 5.93755 19 5.9375ZM6.33334 14.6458C6.64828 14.6458 6.95033 14.7709 7.17303 14.9936C7.39572 15.2163 7.52084 15.5184 7.52084 15.8333V17.4167C7.52084 18.9241 7.81775 20.4168 8.39464 21.8096C8.97152 23.2023 9.81707 24.4677 10.883 25.5337C11.9489 26.5996 13.2144 27.4451 14.6071 28.022C15.9998 28.5989 17.4925 28.8958 19 28.8958C20.5075 28.8958 22.0002 28.5989 23.3929 28.022C24.7856 27.4451 26.0511 26.5996 27.117 25.5337C28.1829 24.4677 29.0285 23.2023 29.6054 21.8096C30.1823 20.4168 30.4792 18.9241 30.4792 17.4167V15.8333C30.4792 15.5184 30.6043 15.2163 30.827 14.9936C31.0497 14.7709 31.3517 14.6458 31.6667 14.6458C31.9816 14.6458 32.2837 14.7709 32.5064 14.9936C32.7291 15.2163 32.8542 15.5184 32.8542 15.8333V17.4167C32.8542 20.8855 31.553 24.2282 29.2077 26.784C26.8624 29.3398 23.6436 30.9228 20.1875 31.2202V34.8333C20.1875 35.1483 20.0624 35.4503 19.8397 35.673C19.617 35.8957 19.3149 36.0208 19 36.0208C18.6851 36.0208 18.383 35.8957 18.1603 35.673C17.9376 35.4503 17.8125 35.1483 17.8125 34.8333V31.2202C14.3564 30.9228 11.1376 29.3398 8.79231 26.784C6.44697 24.2282 5.14576 20.8855 5.14584 17.4167V15.8333C5.14584 15.5184 5.27095 15.2163 5.49365 14.9936C5.71635 14.7709 6.01839 14.6458 6.33334 14.6458Z" fill="#FF6B6B"/>
</svg>
